{
	"asset":{
		"generator":"Khronos glTF Blender I/O v5.0.21",
		"version":"2.0"
	},
	"scene":0,
	"scenes":[
		{
			"name":"Scene",
			"nodes":[
				0
			]
		}
	],
	"nodes":[
		{
			"mesh":0,
			"name":"Starship_Material.003_0"
		}
	],
	"meshes":[
		{
			"name":"Starship_Material.003_0.001",
			"primitives":[
				{
					"attributes":{
						"POSITION":0,
						"NORMAL":1
					},
					"indices":2
				}
			]
		}
	],
	"accessors":[
		{
			"bufferView":0,
			"componentType":5126,
			"count":29877,
			"max":[
				0.49724453687667847,
				0.2564038932323456,
				0.4408925771713257
			],
			"min":[
				-0.49954432249069214,
				0.005925038363784552,
				-0.40081825852394104
			],
			"type":"VEC3"
		},
		{
			"bufferView":1,
			"componentType":5126,
			"count":29877,
			"type":"VEC3"
		},
		{
			"bufferView":2,
			"componentType":5123,
			"count":67896,
			"type":"SCALAR"
		}
	],
	"bufferViews":[
		{
			"buffer":0,
			"byteLength":358524,
			"byteOffset":0,
			"target":34962
		},
		{
			"buffer":0,
			"byteLength":358524,
			"byteOffset":358524,
			"target":34962
		},
		{
			"buffer":0,
			"byteLength":135792,
			"byteOffset":717048,
			"target":34963
		}
	],
	"buffers":[
		{
			"byteLength":852840,
			"uri":"mode04.bin"
		}
	]
}
