{
	"asset":{
		"generator":"Khronos glTF Blender I/O v5.0.21",
		"version":"2.0"
	},
	"scene":0,
	"scenes":[
		{
			"name":"Scene",
			"nodes":[
				0,
				4,
				7
			]
		}
	],
	"nodes":[
		{
			"name":"Sketchfab_model"
		},
		{
			"name":"RadarTower"
		},
		{
			"name":"RT_lamps"
		},
		{
			"children":[
				1,
				2
			],
			"name":"RootNode"
		},
		{
			"children":[
				3
			],
			"name":"RadarTower_FBX.FBX"
		},
		{
			"mesh":0,
			"name":"Object_9"
		},
		{
			"children":[
				5
			],
			"name":"13a4032a4ec944d0fdcfb543f2f24445.obj.cleaner.materialmerger.gles"
		},
		{
			"children":[
				6
			],
			"name":"Sketchfab_model.001"
		}
	],
	"meshes":[
		{
			"name":"Object_7",
			"primitives":[
				{
					"attributes":{
						"POSITION":0,
						"NORMAL":1
					},
					"indices":2
				}
			]
		}
	],
	"accessors":[
		{
			"bufferView":0,
			"componentType":5126,
			"count":602699,
			"max":[
				0.36538228392601013,
				0.9884448647499084,
				0.3425107002258301
			],
			"min":[
				-0.3441051244735718,
				4.517684715210635e-08,
				-0.3217099606990814
			],
			"type":"VEC3"
		},
		{
			"bufferView":1,
			"componentType":5126,
			"count":602699,
			"type":"VEC3"
		},
		{
			"bufferView":2,
			"componentType":5125,
			"count":2992518,
			"type":"SCALAR"
		}
	],
	"bufferViews":[
		{
			"buffer":0,
			"byteLength":7232388,
			"byteOffset":0,
			"target":34962
		},
		{
			"buffer":0,
			"byteLength":7232388,
			"byteOffset":7232388,
			"target":34962
		},
		{
			"buffer":0,
			"byteLength":11970072,
			"byteOffset":14464776,
			"target":34963
		}
	],
	"buffers":[
		{
			"byteLength":26434848,
			"uri":"mode03.bin"
		}
	]
}
