{
	"asset":{
		"generator":"Khronos glTF Blender I/O v5.0.21",
		"version":"2.0"
	},
	"scene":0,
	"scenes":[
		{
			"name":"Scene",
			"nodes":[
				0,
				6
			]
		}
	],
	"nodes":[
		{
			"name":"Sketchfab_model"
		},
		{
			"mesh":0,
			"name":"RadarTower_RadarTower_0.001"
		},
		{
			"children":[
				1
			],
			"name":"RadarTower"
		},
		{
			"name":"RT_lamps"
		},
		{
			"children":[
				2,
				3
			],
			"name":"RootNode"
		},
		{
			"children":[
				4
			],
			"name":"RadarTower_FBX.FBX"
		},
		{
			"children":[
				5
			],
			"name":"Sketchfab_model.001"
		}
	],
	"meshes":[
		{
			"name":"RadarTower_RadarTower_0.001",
			"primitives":[
				{
					"attributes":{
						"POSITION":0,
						"NORMAL":1
					},
					"indices":2
				}
			]
		}
	],
	"accessors":[
		{
			"bufferView":0,
			"componentType":5126,
			"count":194442,
			"max":[
				0.21723930537700653,
				0.9989153742790222,
				0.211137592792511
			],
			"min":[
				-0.20521114766597748,
				-9.480416451879137e-10,
				-0.21131275594234467
			],
			"type":"VEC3"
		},
		{
			"bufferView":1,
			"componentType":5126,
			"count":194442,
			"type":"VEC3"
		},
		{
			"bufferView":2,
			"componentType":5125,
			"count":443322,
			"type":"SCALAR"
		}
	],
	"bufferViews":[
		{
			"buffer":0,
			"byteLength":2333304,
			"byteOffset":0,
			"target":34962
		},
		{
			"buffer":0,
			"byteLength":2333304,
			"byteOffset":2333304,
			"target":34962
		},
		{
			"buffer":0,
			"byteLength":1773288,
			"byteOffset":4666608,
			"target":34963
		}
	],
	"buffers":[
		{
			"byteLength":6439896,
			"uri":"mode02.bin"
		}
	]
}
