{
	"asset":{
		"generator":"Khronos glTF Blender I/O v5.0.21",
		"version":"2.0"
	},
	"scene":0,
	"scenes":[
		{
			"name":"Scene",
			"nodes":[
				2
			]
		}
	],
	"nodes":[
		{
			"mesh":0,
			"name":"Object_3"
		},
		{
			"children":[
				0
			],
			"name":"02. Factory.obj.cleaner.materialmerger.gles"
		},
		{
			"children":[
				1
			],
			"name":"Sketchfab_model"
		}
	],
	"meshes":[
		{
			"name":"Object_1",
			"primitives":[
				{
					"attributes":{
						"POSITION":0,
						"NORMAL":1
					},
					"indices":2
				}
			]
		}
	],
	"accessors":[
		{
			"bufferView":0,
			"componentType":5126,
			"count":15140,
			"max":[
				0.5198479294776917,
				0.7186112403869629,
				0.3235403597354889
			],
			"min":[
				-0.4756476879119873,
				-3.1168895020528e-07,
				-0.3267078399658203
			],
			"type":"VEC3"
		},
		{
			"bufferView":1,
			"componentType":5126,
			"count":15140,
			"type":"VEC3"
		},
		{
			"bufferView":2,
			"componentType":5123,
			"count":35568,
			"type":"SCALAR"
		}
	],
	"bufferViews":[
		{
			"buffer":0,
			"byteLength":181680,
			"byteOffset":0,
			"target":34962
		},
		{
			"buffer":0,
			"byteLength":181680,
			"byteOffset":181680,
			"target":34962
		},
		{
			"buffer":0,
			"byteLength":71136,
			"byteOffset":363360,
			"target":34963
		}
	],
	"buffers":[
		{
			"byteLength":434496,
			"uri":"mode01.bin"
		}
	]
}
